<?xml version="1.0" standalone="no"?><!DOCTYPE svg PUBLIC "-//W3C//DTD SVG 1.1//EN" "http://www.w3.org/Graphics/SVG/1.1/DTD/svg11.dtd"><svg t="1683617287448" class="icon" viewBox="0 0 1024 1024" version="1.1" xmlns="http://www.w3.org/2000/svg" p-id="1944" xmlns:xlink="http://www.w3.org/1999/xlink" width="200" height="200"><path d="M283.6 280.4s22.5 75.4 1.2 92.9c-21.2 17.5-97.8 89-90.5 162.2s86.6 86.1 85.3 112.9c-1.3 26.8-53 73.8-45.6 133.8s68.3 119.1 160.6 112.6S592.1 844 592.1 844s112.6-295.4 54.5-444.9-363-118.7-363-118.7z" fill="#2D3647" p-id="1945"></path><path d="M380.7 907.8c-50.2 0-84.9-18.3-105.8-34.5-29.6-23-49-55.6-53.2-89.6-5.2-42.1 15.6-78.1 30.8-104.3 7.4-12.8 14.4-24.9 14.7-31.7 0.2-3.6-13-13-20.9-18.6-23.6-16.8-59.3-42.1-64.4-92.4-3.5-34.3 8.9-71.5 36.8-110.5 23.6-33 50.5-56.3 58.2-62.6 2.9-2.4 6.8-13.9 2.9-41.7-2.8-19.9-8.1-37.9-8.2-38.1-1.1-3.6-0.5-7.4 1.6-10.5 2.1-3.1 5.4-5.1 9.1-5.5 3.2-0.3 78.6-7.7 162.6 3.4 49.8 6.6 92.2 18.3 126 35 43.5 21.5 72.9 51.2 87.4 88.3 13.9 35.8 19.6 82.1 16.9 137.7-2.1 43.8-9.5 93.6-21.7 148.1-20.8 92.3-49.3 167.3-49.6 168.1-1.2 3.2-3.7 5.7-6.8 7.1-4.4 1.8-108.2 45.2-201.5 51.7-5.1 0.5-10.1 0.6-14.9 0.6z m-81.2-616.1c1.7 7.4 3.7 16.8 5.1 26.8 4.6 33 0.8 54-11.8 64.4-34.7 28.7-91.9 92.8-86 151.3 3.9 39 31.7 58.7 54 74.6 17.3 12.3 32.2 22.9 31.4 40.2-0.6 12.9-8.7 26.8-18.1 43-14.2 24.5-31.8 54.9-27.6 88.7 6.7 54.6 63.7 107.5 147.3 101.7 78.1-5.5 166.9-39.2 188.6-47.8 6.6-18.1 29.4-82.9 46.7-159.9 26.7-118.5 28.7-212.2 5.9-270.9-47-121.1-275.2-115.7-335.5-112.1z" fill="#E04B87" p-id="1946"></path><path d="M440 889.1c78.3-13.9 152.3-45 152.3-45s112.6-295.4 54.5-444.9c0 0-131.4 177.5-154.8 192.9-23.4 15.4-55.4 33.2-55.4 33.2s46.4 72 51.3 139.1c4.9 67.1-47.9 124.7-47.9 124.7z" fill="#EDBFAB" p-id="1947"></path><path d="M440 901.6c-4.5 0-8.7-2.4-11-6.5-2.6-4.7-1.9-10.5 1.7-14.5 0.8-0.9 49.1-54.8 44.6-115.3-4.6-63-48.9-132.6-49.4-133.3-1.9-2.9-2.5-6.5-1.6-9.8s3-6.2 6-7.9c0.3-0.2 31.9-17.8 54.6-32.8 3-2 17.9-15 83.1-99.4 35.3-45.7 68.2-90.1 68.5-90.5 2.7-3.7 7.2-5.6 11.7-5 4.5 0.6 8.3 3.6 10 7.9 13.9 35.8 19.6 82.1 16.9 137.7-2.1 43.8-9.5 93.6-21.7 148.1-20.8 92.3-49.3 167.3-49.6 168.1-1.2 3.2-3.7 5.7-6.8 7.1-3.1 1.3-76.2 31.8-154.9 45.8-0.7 0.2-1.4 0.3-2.1 0.3z m13.9-271.8c13.5 23.5 42.5 79.5 46.5 133.7 3.2 43.2-15.2 82.1-30.8 106.7 52.3-12.3 98.2-29.8 112.9-35.7 6.6-18.1 29.4-82.9 46.7-159.9 23.5-104.4 27.9-189.5 13-248.5-13 17.4-33.2 44.1-54.2 71.3-72.8 94.3-84.7 102.1-89.2 105-15.1 10-33.4 20.8-44.9 27.4z" fill="#E04B87" p-id="1948"></path><path d="M331.9 333.6s-20.9 28.9-25.8 51.1c-4.9 22.2-6.2 44.3-6.2 44.3s-45.6 36.8-45.6 55.2c0 28.3 38.2 30.9 38.2 34.6 0 5.6-9.5 106 80.1 126.8 84.9 19.7 134.8-29.5 172.9-81.2 38.2-51.7 47.4-217.8-16.6-249.2s-197 18.4-197 18.4z" fill="#EDBFAB" p-id="1949"></path><path d="M409.7 662.6c-12.8 0-26.1-1.6-40-4.8-39.6-9.2-67.7-34.4-81.2-72.8-6.2-17.6-9.1-37.1-8.8-58.2-5.9-2-14-5-21.2-10.3-11-8.1-16.8-19.2-16.8-32.2 0-7.2 2.7-19.4 26.4-43.3 7.6-7.6 15.1-14.3 19.6-18.1 0.7-8.2 2.4-24.4 6-40.8 5.4-24.4 27-54.4 27.9-55.7 1.4-2 3.4-3.5 5.7-4.4 5.6-2.1 138.8-51.4 206.8-18 22 10.8 38.1 35 46.7 70.1 7.7 31.4 9.1 69.9 4.1 108.5-4.9 37.9-15.7 70.5-29.6 89.3-17.1 23.1-40.7 52.1-72.7 70.7-22.6 13.3-46.8 20-72.9 20zM339.9 344c-6.4 9.5-18.4 29.1-21.6 43.4-4.6 20.8-5.9 42.1-5.9 42.3-0.2 3.5-1.9 6.8-4.6 9-0.1 0.1-10.8 8.8-21.5 19.5-18.8 18.9-19.5 26-19.5 26.1 0 9.8 8.4 14.6 23 19.5 6 2 15.2 5.1 15.2 15.1 0 0.4 0 1.1-0.1 2.1-1.3 28.6 2.9 96.8 70.5 112.5 77.7 18 122.9-26.1 160-76.5 22.4-30.4 36.6-114.3 21.3-177-4.7-19.3-14.3-44.2-33.4-53.5-52.8-26.1-162.2 10.1-183.4 17.5z m-40 85z" fill="#E04B87" p-id="1950"></path><path d="M410.4 341c18.5 0 89.5 79.4 99.7 127.4s-17.5 65.5-39.7 59.1c-22.2-6.5 24 21.4 57.2 14.4s42.5-18.1 42.5-18.1-14.8 17.5-11.1 62.8 30.5 65.5 30.5 65.5-79.4 52.6-47.1 158.8 108 89.5 108 89.5 40.6 42.5 128.3 24.9 96-139.4 83.1-183.7c-12.9-44.3-49.8-84.9-51.7-99.7-1.8-14.8 36-33.2 40.6-113.5 4.6-80.3-72-129.2-73.8-146.8-1.8-17.5-27.7-140.3-126.5-203.1s-167.1-26.8-167.1-26.8-105.2-10.2-155.1 26.8-60.5 92.9-35.7 141.5c36.1 70.8 117.9 21 117.9 21z" fill="#2D3647" p-id="1951"></path><path d="M737.7 942.1c-50.2 0-80.1-19.5-91.3-28.6-8.6 0.7-24.6 0.6-42.5-6.5-23.5-9.3-55.3-33-73.5-92.6-18-59.2-3.1-103 12.7-129.3 9.3-15.6 20-27 27.9-34.2-9.4-11.5-21.9-32.3-24.5-63.4-1.3-15.4-0.5-28 1.1-38.1-5.1 1.6-10.9 3.2-17.5 4.6-16.8 3.5-34.6-0.2-46.7-4-7.2-2.3-24.5-8.4-29.3-16-3-4.7-2.8-10.5 0.5-14.8 5.8-7.7 15.2-4.9 19.2-3.8 6.4 1.9 13 0.4 17.7-4 7.9-7.3 10.2-22.1 6.3-40.5-3.9-18.5-19.6-46.1-42-73.7-20.3-25.1-37-39-44-42.8-12.9 6.8-48.7 22.7-82.5 13.1-20.7-5.9-36.8-19.9-48-41.8-28.7-56.5-13.3-118.2 39.4-157.3 48.4-35.9 141-30.9 160.3-29.5 16.1-6.9 83.9-29.6 176 29 43.1 27.4 79.2 70.2 104.2 123.8 19.3 41.2 26.7 77.5 27.9 88 1.4 3.1 8.6 11.2 14.4 17.7 23.6 26.3 63.1 70.2 59.5 131.7-3.3 57.6-22.8 85.5-34.5 102.3-2.4 3.4-5.3 7.6-6.1 9.6 1.2 4.2 8.3 15.2 14 24.1 12.3 19.1 29 45.3 37.1 73 9.3 31.8 9 98.5-20.5 147.3-17.3 28.5-41.5 46.1-72.1 52.2-15.6 3.1-30.1 4.5-43.2 4.5z m-87.3-54.2c3.4 0 6.6 1.4 9 3.9 0 0 9.4 9.4 28.2 16.6 17.5 6.7 47.1 13 88.6 4.7 23.4-4.7 42.2-18.4 55.7-40.6 24.2-40 26-99.6 17.9-127.3-7.1-24.3-22.1-47.7-34.2-66.5-10.1-15.8-16.8-26.2-17.9-35.1-1.2-9.6 4.2-17.4 10.5-26.4 10.8-15.5 27.1-38.9 30-89.4 2.9-51.1-30.8-88.7-53.2-113.6-12.3-13.6-19.7-21.9-20.6-31.1-0.7-6.9-7.2-40.9-25.8-80.6-16-34.3-45.5-81.8-95-113.2-91.6-58.2-153.9-26.6-154.5-26.3-2.2 1.1-4.6 1.6-7 1.4-1-0.1-101.1-9.2-146.4 24.4-43 31.9-55.3 80.1-32 125.8 7.9 15.6 18.5 25.1 32.4 29 5.2 1.5 10.6 2.1 15.9 2.1 26.3 0 51.6-15.1 51.9-15.3 1.9-1.2 4.2-1.8 6.5-1.8 5.4 0 13.6 1.8 30.1 16.2 10 8.7 21.5 20.8 32.5 34 12.5 15.1 42.3 53.9 49.3 87.1 7.9 37.3-5.2 56.1-13.7 64l-0.2 0.2c5.7 0.7 11.4 0.7 16.7-0.4 26.3-5.5 35.1-13.6 35.7-14.2 4.5-5 12.2-5.6 17.3-1.2 5.2 4.4 6 12.1 1.7 17.4-0.5 0.7-11.4 16.2-8.3 53.9 3.1 38.1 24.2 55.5 25.6 56.6 3.3 2.4 5.1 6.2 5 10.3-0.1 4.1-2.3 7.8-5.7 10.1-0.1 0.1-18.3 12.5-32.4 36.5-18.6 31.7-21.9 68.1-9.7 108.2 12.1 39.6 32.4 66.1 58.8 76.6 18.9 7.5 34.4 4.4 34.6 4.4 0.9-0.3 1.8-0.4 2.7-0.4z m-185.6-349z m114.9-7.1l0.2-0.2c-0.1 0.1-0.2 0.1-0.2 0.2z m-19-16.3l-0.3 0.3 0.3-0.3z m0.1-0.1z m-151.3-162z" fill="#E04B87" p-id="1952"></path></svg>